<svg width="40" height="40" viewBox="0 0 40 40" fill="none" xmlns="http://www.w3.org/2000/svg">
<path fill-rule="evenodd" clip-rule="evenodd" d="M20 40C31.046 40 40 31.046 40 20C40 8.954 31.046 0 20 0C8.954 0 0 8.954 0 20C0 31.046 8.954 40 20 40ZM20.94 12.94C21.2213 12.6591 21.6025 12.5013 22 12.5013C22.3975 12.5013 22.7787 12.6591 23.06 12.94L29.06 18.94C29.3409 19.2213 29.4987 19.6025 29.4987 20C29.4987 20.3975 29.3409 20.7787 29.06 21.06L23.06 27.06C22.9227 27.2074 22.7571 27.3256 22.5731 27.4076C22.3891 27.4895 22.1904 27.5336 21.989 27.5372C21.7876 27.5407 21.5876 27.5037 21.4008 27.4282C21.214 27.3528 21.0444 27.2405 20.9019 27.0981C20.7595 26.9556 20.6472 26.786 20.5718 26.5992C20.4963 26.4124 20.4593 26.2124 20.4628 26.011C20.4664 25.8096 20.5105 25.6109 20.5924 25.4269C20.6744 25.2429 20.7926 25.0773 20.94 24.94L24.38 21.5H12C11.6022 21.5 11.2206 21.342 10.9393 21.0607C10.658 20.7794 10.5 20.3978 10.5 20C10.5 19.6022 10.658 19.2206 10.9393 18.9393C11.2206 18.658 11.6022 18.5 12 18.5H24.38L20.94 15.06C20.6591 14.7787 20.5013 14.3975 20.5013 14C20.5013 13.6025 20.6591 13.2213 20.94 12.94Z" fill="white"/>
</svg>
